<svg width="127" height="127" viewBox="0 0 127 127" fill="none" xmlns="http://www.w3.org/2000/svg">
<circle cx="63" cy="63" r="63" fill="#D9D9D9"/>
<circle cx="63" cy="63" r="63" fill="url(#paint0_linear_6338_6510)"/>
<g opacity="0.8">
<path d="M110.821 35.4302C126.022 61.8042 116.983 95.5391 90.6312 110.779C64.2794 126.019 30.594 116.993 15.3926 90.6189C0.191285 64.2448 9.23051 30.51 35.5823 15.27C61.9341 0.0300916 95.6195 9.05609 110.821 35.4302Z" stroke="url(#paint1_linear_6338_6510)" stroke-width="5.8481" stroke-miterlimit="10"/>
<path d="M110.821 35.4302C126.022 61.8042 116.983 95.5391 90.6312 110.779C64.2794 126.019 30.594 116.993 15.3926 90.6189C0.191285 64.2448 9.23051 30.51 35.5823 15.27C61.9341 0.0300916 95.6195 9.05609 110.821 35.4302Z" stroke="url(#paint2_linear_6338_6510)" stroke-width="4.25316" stroke-miterlimit="10"/>
<path style="mix-blend-mode:multiply" opacity="0.5" d="M11.8461 49.289C10.4733 54.4124 9.90534 59.5643 10.0521 64.6114C9.59533 65.1869 9.17323 65.7853 8.9388 66.4953C8.73223 67.114 8.68547 67.796 8.34847 68.3559C8.07468 68.8068 7.62358 69.1456 7.41763 69.6351C7.12781 70.3234 7.39397 71.1062 7.41459 71.8539C7.42748 72.4021 7.27428 72.9738 6.96243 73.4145C5.45755 65.3038 5.68902 56.7391 7.96314 48.252C10.2373 39.7648 14.1908 32.4699 19.4281 26.2576C19.4476 27.0731 19.3418 27.8992 19.1569 28.6906C18.751 30.4338 18.0043 32.0789 17.4842 33.7915C17.2697 34.5034 17.137 35.3666 17.4175 36.0069C15.017 40.0685 13.1213 44.5173 11.8412 49.2945L11.8461 49.289Z" fill="url(#paint3_linear_6338_6510)"/>
<path style="mix-blend-mode:multiply" opacity="0.5" d="M118.712 50.0792C118.567 49.9723 118.437 49.8489 118.326 49.7171C117.771 49.0475 117.508 48.177 116.987 47.4825C116.528 46.8728 115.888 46.422 115.36 45.8685C114.5 44.9674 114.184 43.8751 113.547 42.8533C113.126 42.1787 112.504 42.0122 111.792 41.9031C107.778 32.64 101.169 24.5712 92.6259 18.8401C92.7054 18.201 92.8549 17.567 92.6174 16.9689C92.3104 16.1989 91.4131 15.7542 91.3832 14.8509C91.375 14.5389 91.4841 14.2208 91.3904 13.9234C91.2725 13.5514 90.8808 13.3511 90.5955 13.084C90.492 12.9882 90.4031 12.8758 90.3295 12.7574C104.828 20.622 115.045 34.3797 118.708 50.0815L118.712 50.0792Z" fill="url(#paint4_linear_6338_6510)"/>
</g>
<path d="M105.52 105.5C128.944 82.0414 128.944 44.0079 105.52 20.5495C82.0963 -2.9089 44.1183 -2.90889 20.6943 20.5495C-2.7298 44.0079 -2.7298 82.0414 20.6943 105.5C44.1183 128.958 82.0963 128.958 105.52 105.5Z" stroke="url(#paint5_linear_6338_6510)" stroke-width="5.8481" stroke-miterlimit="10"/>
<path d="M105.52 105.5C128.944 82.0414 128.944 44.0079 105.52 20.5495C82.0963 -2.9089 44.1183 -2.90889 20.6943 20.5495C-2.7298 44.0079 -2.7298 82.0414 20.6943 105.5C44.1183 128.958 82.0963 128.958 105.52 105.5Z" stroke="url(#paint6_linear_6338_6510)" stroke-width="4.25316" stroke-miterlimit="10"/>
<path style="mix-blend-mode:multiply" opacity="0.5" d="M5.31481 63.025C5.31481 57.2487 6.16944 51.6694 7.74638 46.4016C7.42813 45.6675 7.15279 44.919 7.1063 44.1061C7.06339 43.3971 7.20643 42.6665 7.00976 41.9826C6.84884 41.4311 6.4698 40.9476 6.39114 40.3747C6.28029 39.5689 6.7809 38.8205 7.01333 38.0398C7.1814 37.4668 7.1814 36.8222 6.97757 36.2708C3.10852 44.3783 0.937988 53.4527 0.937988 63.0214C0.937988 72.59 3.04058 81.378 6.79878 89.3888C7.04909 88.5365 7.17067 87.6377 7.19927 86.7532C7.26364 84.805 6.94182 82.8641 6.87745 80.916C6.85242 80.1067 6.95612 79.1613 7.4317 78.5668C6.05143 73.6178 5.31123 68.4037 5.31123 63.0178L5.31481 63.025Z" fill="url(#paint7_linear_6338_6510)"/>
<path style="mix-blend-mode:multiply" opacity="0.5" d="M117.949 92.3146C117.767 92.3862 117.595 92.4793 117.442 92.5868C116.669 93.1347 116.147 93.9762 115.403 94.5599C114.749 95.072 113.948 95.3657 113.237 95.799C112.078 96.5045 111.438 97.5645 110.48 98.4597C109.847 99.0506 109.146 99.0506 108.366 98.9647C101.533 107.577 92.3072 114.202 81.7048 117.823C81.6083 118.517 81.5868 119.226 81.1684 119.789C80.6285 120.512 79.5593 120.727 79.2732 121.669C79.1767 121.995 79.2017 122.36 79.0193 122.646C78.7905 123.004 78.3221 123.105 77.9466 123.305C77.8107 123.377 77.6856 123.47 77.5747 123.574C95.0427 119.388 109.668 107.796 117.946 92.311L117.949 92.3146Z" fill="url(#paint8_linear_6338_6510)"/>
<defs>
<linearGradient id="paint0_linear_6338_6510" x1="63" y1="0" x2="63" y2="109.584" gradientUnits="userSpaceOnUse">
<stop stop-color="#512DBD"/>
<stop offset="1" stop-color="#2D186C"/>
</linearGradient>
<linearGradient id="paint1_linear_6338_6510" x1="6.41633" y1="47.8346" x2="119.797" y2="78.215" gradientUnits="userSpaceOnUse">
<stop stop-color="#B78E5C"/>
<stop offset="0.05" stop-color="#FFDEA4"/>
<stop offset="0.21" stop-color="#B8905E"/>
<stop offset="0.29" stop-color="white"/>
<stop offset="0.49" stop-color="#EDCA92"/>
<stop offset="0.82" stop-color="#B28958"/>
<stop offset="0.97" stop-color="#FFDEA4"/>
</linearGradient>
<linearGradient id="paint2_linear_6338_6510" x1="13.1159" y1="91.9359" x2="113.178" y2="34.2625" gradientUnits="userSpaceOnUse">
<stop offset="0.03" stop-color="#FFDEA4"/>
<stop offset="0.18" stop-color="#B28958"/>
<stop offset="0.51" stop-color="#EDCA92"/>
<stop offset="0.71" stop-color="white"/>
<stop offset="0.79" stop-color="#B8905E"/>
<stop offset="0.95" stop-color="#FFDEA4"/>
<stop offset="1" stop-color="#B78E5C"/>
</linearGradient>
<linearGradient id="paint3_linear_6338_6510" x1="-38.4766" y1="33.3982" x2="20.7942" y2="52.2431" gradientUnits="userSpaceOnUse">
<stop offset="0.03" stop-color="#FFDEA4"/>
<stop offset="0.18" stop-color="#B28958"/>
<stop offset="0.51" stop-color="#EDCA92"/>
<stop offset="0.71" stop-color="white"/>
<stop offset="0.79" stop-color="#B8905E"/>
<stop offset="0.95" stop-color="#FFDEA4"/>
<stop offset="1" stop-color="#B78E5C"/>
</linearGradient>
<linearGradient id="paint4_linear_6338_6510" x1="117.928" y1="3.32128" x2="111.158" y2="17.4958" gradientUnits="userSpaceOnUse">
<stop offset="0.03" stop-color="#FFDEA4"/>
<stop offset="0.18" stop-color="#B28958"/>
<stop offset="0.51" stop-color="#EDCA92"/>
<stop offset="0.71" stop-color="white"/>
<stop offset="0.79" stop-color="#B8905E"/>
<stop offset="0.95" stop-color="#FFDEA4"/>
<stop offset="1" stop-color="#B78E5C"/>
</linearGradient>
<linearGradient id="paint5_linear_6338_6510" x1="-0.80698" y1="63.0244" x2="127.022" y2="63.0244" gradientUnits="userSpaceOnUse">
<stop stop-color="#B78E5C"/>
<stop offset="0.05" stop-color="#FFDEA4"/>
<stop offset="0.21" stop-color="#B8905E"/>
<stop offset="0.29" stop-color="white"/>
<stop offset="0.49" stop-color="#EDCA92"/>
<stop offset="0.82" stop-color="#B28958"/>
<stop offset="0.97" stop-color="#FFDEA4"/>
</linearGradient>
<linearGradient id="paint6_linear_6338_6510" x1="18.6706" y1="18.5224" x2="107.671" y2="107.393" gradientUnits="userSpaceOnUse">
<stop offset="0.03" stop-color="#FFDEA4"/>
<stop offset="0.18" stop-color="#B28958"/>
<stop offset="0.51" stop-color="#EDCA92"/>
<stop offset="0.71" stop-color="white"/>
<stop offset="0.79" stop-color="#B8905E"/>
<stop offset="0.95" stop-color="#FFDEA4"/>
<stop offset="1" stop-color="#B78E5C"/>
</linearGradient>
<linearGradient id="paint7_linear_6338_6510" x1="-52.0988" y1="65.5568" x2="15.56" y2="62.4396" gradientUnits="userSpaceOnUse">
<stop offset="0.03" stop-color="#FFDEA4"/>
<stop offset="0.18" stop-color="#B28958"/>
<stop offset="0.51" stop-color="#EDCA92"/>
<stop offset="0.71" stop-color="white"/>
<stop offset="0.79" stop-color="#B8905E"/>
<stop offset="0.95" stop-color="#FFDEA4"/>
<stop offset="1" stop-color="#B78E5C"/>
</linearGradient>
<linearGradient id="paint8_linear_6338_6510" x1="103.946" y1="141.279" x2="100.82" y2="124.46" gradientUnits="userSpaceOnUse">
<stop offset="0.03" stop-color="#FFDEA4"/>
<stop offset="0.18" stop-color="#B28958"/>
<stop offset="0.51" stop-color="#EDCA92"/>
<stop offset="0.71" stop-color="white"/>
<stop offset="0.79" stop-color="#B8905E"/>
<stop offset="0.95" stop-color="#FFDEA4"/>
<stop offset="1" stop-color="#B78E5C"/>
</linearGradient>
</defs>
</svg>
