<svg width="641" height="641" viewBox="0 0 641 641" fill="none" xmlns="http://www.w3.org/2000/svg">
<path d="M160.618 43.0358L320.591 320.118L237.783 11.073C221.13 15.5351 204.836 21.3348 189.075 28.4251C179.453 32.7772 169.956 37.6444 160.618 43.0358Z" fill="#6D3DFF"/>
<path d="M320.591 0.171146V320.118L403.399 11.073C386.753 6.61275 369.749 3.48898 352.562 1.74853C342.046 0.705274 331.381 0.171146 320.591 0.171146Z" fill="#6D3DFF"/>
<path d="M320.591 320.118L546.827 93.8813C534.64 81.6938 521.473 70.4849 507.457 60.3827C498.873 54.2232 489.906 48.4295 480.564 43.0358L320.591 320.118Z" fill="#6D3DFF"/>
<path d="M597.673 160.144L320.591 320.118L629.635 237.309C625.174 220.658 619.375 204.366 612.286 188.606C607.933 178.983 603.065 169.484 597.673 160.144Z" fill="#6D3DFF"/>
<path d="M640.537 320.118H320.591L629.635 402.926C634.099 386.268 637.224 369.25 638.964 352.05C640.005 341.547 640.537 330.895 640.537 320.118Z" fill="#6D3DFF"/>
<path d="M320.591 320.118L546.827 546.354C559.012 534.169 570.219 521.006 580.319 506.993C586.481 498.407 592.277 489.436 597.673 480.091L320.591 320.118Z" fill="#6D3DFF"/>
<path d="M480.564 597.2L320.591 320.118L403.399 629.162C420.052 624.7 436.347 618.9 452.108 611.81C461.729 607.458 471.226 602.591 480.564 597.2Z" fill="#6D3DFF"/>
<path d="M320.591 640.064V320.118L237.783 629.162C254.44 633.626 271.455 636.751 288.654 638.49C299.159 639.531 309.813 640.064 320.591 640.064Z" fill="#6D3DFF"/>
<path d="M320.591 320.118L94.3545 546.354C106.549 558.548 119.723 569.763 133.749 579.87C142.325 586.023 151.284 591.811 160.618 597.2L320.591 320.118Z" fill="#6D3DFF"/>
<path d="M43.509 480.091L320.591 320.118L11.5462 402.926C16.0083 419.579 21.808 435.873 28.8985 451.634C33.2505 461.256 38.1176 470.753 43.509 480.091Z" fill="#6D3DFF"/>
<path d="M0.644302 320.118H320.591L11.5462 237.309C7.08669 253.952 3.96324 270.953 2.22261 288.138C1.17874 298.656 0.644302 309.324 0.644302 320.118Z" fill="#6D3DFF"/>
<path d="M320.591 320.118L94.3545 93.8813C82.1572 106.079 70.9401 119.256 60.8316 133.286C54.6811 141.859 48.8956 150.815 43.509 160.144L320.591 320.118Z" fill="#6D3DFF"/>
</svg>
